<svg width="12" height="22" viewBox="0 0 12 22" fill="none" xmlns="http://www.w3.org/2000/svg">
<path d="M7.64238 16.1119C7.64238 17.7765 7.63815 19.4368 7.64661 21.1014C7.64661 21.2836 7.59583 21.3333 7.40963 21.3291C5.96236 21.3208 4.51933 21.3208 3.07206 21.3291C2.87317 21.3291 2.80969 21.2836 2.80969 21.0807C2.81816 17.7806 2.81392 14.4847 2.81392 11.1846C2.81392 10.8533 2.85201 10.8947 2.50501 10.8906C1.8914 10.8906 1.27779 10.8865 0.664185 10.8947C0.516073 10.8947 0.473755 10.8492 0.473755 10.7043C0.477987 9.6567 0.477987 8.60498 0.473755 7.5574C0.473755 7.41248 0.516073 7.36693 0.664185 7.37107C1.30741 7.37935 1.94641 7.36693 2.58964 7.37935C2.76314 7.3835 2.81816 7.33795 2.81816 7.1599C2.80969 6.27795 2.81816 5.39186 2.81392 4.5099C2.80969 3.77701 2.92395 3.06897 3.30058 2.42303C3.70683 1.71912 4.3162 1.23467 5.06946 0.919982C5.70423 0.654983 6.37285 0.530764 7.05839 0.493498C8.41679 0.418967 9.77942 0.481076 11.1378 0.456233C11.2902 0.452092 11.3283 0.50592 11.3283 0.646701C11.324 1.73569 11.324 2.82881 11.3283 3.91779C11.3283 4.08342 11.2648 4.10826 11.1167 4.10826C10.3338 4.10412 9.55091 4.10412 8.76803 4.10412C8.11634 4.10412 7.64661 4.56373 7.64661 5.19311C7.64661 5.84318 7.65507 6.48912 7.64238 7.1392C7.63814 7.32553 7.70162 7.37107 7.88359 7.37107C8.95423 7.36279 10.0291 7.37107 11.0997 7.36279C11.2775 7.36279 11.3367 7.41248 11.3156 7.58639C11.2521 8.12053 11.1971 8.65467 11.1378 9.18881C11.0828 9.70224 10.9897 10.2115 10.9051 10.7208C10.8797 10.8658 10.8331 10.8989 10.6977 10.8989C9.77942 10.8947 8.86536 10.8947 7.94706 10.8989C7.58736 10.8989 7.63814 10.8533 7.63814 11.2094C7.64238 12.8408 7.64238 14.4764 7.64238 16.1119Z" fill="white"/>
</svg>
