<svg width="22" height="22" viewBox="0 0 22 22" fill="none" xmlns="http://www.w3.org/2000/svg">
<path d="M21.6482 10.8947C21.6482 12.3771 21.6525 13.8594 21.6482 15.3459C21.6398 17.499 20.6157 19.0932 18.7875 20.2194C17.7169 20.8736 16.5278 21.1635 15.2667 21.1635C12.5076 21.1635 9.75272 21.1759 6.9936 21.1594C5.07661 21.1469 3.42622 20.4844 2.1186 19.0932C1.31033 18.2319 0.82791 17.2175 0.688262 16.0457C0.658639 15.7972 0.654408 15.5529 0.654408 15.3045C0.654408 12.3522 0.650176 9.39998 0.654408 6.44771C0.667103 4.29045 1.69119 2.69631 3.51932 1.57006C4.59842 0.911696 5.79178 0.625993 7.06131 0.625993C9.81196 0.625993 12.5626 0.613571 15.3133 0.630134C17.2387 0.642555 18.8933 1.3092 20.201 2.70873C21.0008 3.56584 21.479 4.58029 21.6144 5.73967C21.6694 6.19513 21.644 6.6506 21.6482 7.10193C21.6525 8.36896 21.6482 9.63185 21.6482 10.8947ZM2.22439 10.8947C2.22439 12.4144 2.22016 13.9298 2.22439 15.4494C2.22863 16.4929 2.61795 17.3914 3.34581 18.1367C4.32335 19.1346 5.5421 19.619 6.94282 19.6273C9.72309 19.6439 12.4991 19.6315 15.2794 19.6315C16.1765 19.6315 17.0314 19.441 17.81 19.0021C19.2657 18.1864 20.0867 16.9856 20.0867 15.3045C20.0867 12.315 20.0867 9.32959 20.0867 6.34006C20.0867 5.3049 19.7016 4.41052 18.978 3.66935C18.0089 2.66732 16.7859 2.17459 15.3894 2.16631C12.5795 2.1456 9.77388 2.15802 6.96398 2.15802C6.088 2.15802 5.25857 2.36091 4.49686 2.78326C3.04536 3.6031 2.22016 4.80388 2.22439 6.48498C2.22439 7.9549 2.22439 9.42482 2.22439 10.8947Z" fill="white"/>
<path d="M11.1661 15.2838C8.4324 15.2838 6.24034 13.1473 6.24457 10.4807C6.24881 7.88452 8.47049 5.75624 11.183 5.76038C13.9083 5.76038 16.1088 7.90109 16.1046 10.5428C16.1004 13.1597 13.8871 15.2838 11.1661 15.2838ZM11.1661 13.7518C13.0239 13.7518 14.5388 12.3067 14.5388 10.5304C14.5388 8.74577 13.0366 7.29241 11.183 7.29241C9.3253 7.29241 7.81033 8.73749 7.81033 10.5138C7.81033 12.2984 9.31261 13.7518 11.1661 13.7518Z" fill="white"/>
<path d="M15.639 5.37116C15.639 4.78319 16.1003 4.31116 16.6758 4.31116C17.2513 4.31116 17.7126 4.78733 17.7126 5.37116C17.7126 5.9467 17.2513 6.41873 16.6843 6.42287C16.1088 6.42701 15.639 5.95912 15.639 5.37116Z" fill="white"/>
</svg>
