<svg width="28" height="23" viewBox="0 0 28 23" fill="none" xmlns="http://www.w3.org/2000/svg">
<path d="M26.8909 3.43704C26.7157 3.32091 26.4836 3.32682 26.3144 3.45194C26.0923 3.61678 25.7307 3.74758 25.3415 3.84833C26.355 2.73717 26.3768 1.99522 26.3659 1.82445C26.3545 1.64825 26.246 1.49191 26.0826 1.4167C25.9187 1.34101 25.7268 1.35945 25.5808 1.46305C24.4408 2.27383 23.3052 2.44508 22.6298 2.46234C21.5933 1.49192 20.2469 0.959991 18.8145 0.959991C15.7472 0.959991 13.2519 3.43419 13.2519 6.47534C13.2519 6.73669 13.2705 6.99804 13.3078 7.25656C7.99201 7.19767 3.6753 2.21401 3.63082 2.16198C3.52712 2.04064 3.36928 1.97584 3.20805 1.98979C3.04682 2.00351 2.90251 2.09314 2.82177 2.23032C1.29191 4.82705 2.31561 7.10778 3.25132 8.41359C3.08574 8.32726 2.95158 8.24212 2.87156 8.1844C2.7229 8.07608 2.52445 8.0581 2.35742 8.13828C2.19062 8.2187 2.08403 8.3833 2.08088 8.56519C2.03955 11.0394 3.25687 12.4568 4.40118 13.2404C4.24866 13.2262 4.09371 13.2818 3.98784 13.3944C3.86892 13.5209 3.8271 13.6995 3.87834 13.8639C4.66877 16.3958 6.61006 17.256 7.84526 17.5479C5.30547 19.4824 1.56817 18.8599 1.52685 18.8528C1.30131 18.8137 1.07821 18.9299 0.986351 19.1347C0.894495 19.3393 0.957341 19.5791 1.13912 19.7146C3.81985 21.7165 7.02606 22.16 9.34225 22.16C11.094 22.1597 12.3372 21.906 12.4561 21.8807C24.1877 19.1605 24.5179 8.64587 24.4911 6.9226C26.6934 4.91859 27.0377 4.15534 27.0908 3.9666C27.1469 3.76627 27.0667 3.5534 26.8909 3.43704Z" fill="white"/>
</svg>
