<svg width="23" height="23" viewBox="0 0 23 23" fill="none" xmlns="http://www.w3.org/2000/svg">
<path d="M22.1033 11.1719C22.0989 13.023 21.6882 14.6561 20.858 16.1738C20.0759 17.6059 18.9968 18.7987 17.6379 19.7392C16.4451 20.5643 15.1388 21.1286 13.71 21.4193C12.1284 21.7399 10.5467 21.7057 8.97819 21.3381C8.14804 21.1414 7.35285 20.8422 6.60571 20.4446C6.47901 20.3762 6.36978 20.3719 6.23433 20.4146C4.58715 20.9319 2.93996 21.4449 1.29277 21.958C1.1049 22.0178 0.921389 22.0734 0.733513 22.1418C0.602437 22.1888 0.593699 22.1418 0.628653 22.0349C0.820897 21.4834 1.00877 20.9319 1.20102 20.3762C1.61172 19.1749 2.02243 17.9736 2.44187 16.7765C2.49867 16.6184 2.41565 16.5158 2.35012 16.4046C1.83455 15.5282 1.46754 14.5962 1.24034 13.613C0.746621 11.4925 0.921389 9.41483 1.75154 7.40126C2.23215 6.23844 2.91811 5.19532 3.79632 4.2719C4.91483 3.09197 6.2387 2.22413 7.76792 1.64272C9.19665 1.09978 10.6734 0.8903 12.1939 0.980077C14.278 1.10405 16.1743 1.77952 17.8389 3.01075C19.9929 4.60108 21.3474 6.6916 21.8892 9.28658C22.0333 9.94922 22.0858 10.6204 22.1033 11.1719ZM11.4643 2.71149C11.0579 2.69439 10.5817 2.74141 10.1054 2.80982C9.91757 2.83547 9.73406 2.87394 9.55055 2.92097C6.71057 3.62636 4.67016 5.28509 3.46863 7.89718C2.77393 9.40628 2.58605 11.0009 2.8482 12.634C3.05356 13.9251 3.54291 15.1135 4.30752 16.1866C4.39053 16.3063 4.40364 16.4089 4.35558 16.5414C4.03226 17.4691 3.71767 18.4011 3.39872 19.333C3.38125 19.3843 3.32882 19.4442 3.37688 19.4912C3.42494 19.5425 3.48611 19.4869 3.53854 19.4698C4.49539 19.1706 5.45225 18.8756 6.40036 18.5635C6.61882 18.4909 6.77611 18.5251 6.96399 18.6362C9.10926 19.8974 11.4031 20.2308 13.8193 19.6024C15.6543 19.1278 17.1661 18.1488 18.3632 16.7039C19.5211 15.3059 20.1677 13.707 20.2988 11.92C20.3993 10.5477 20.1808 9.2139 19.6216 7.93993C18.9181 6.33677 17.8214 5.05424 16.3403 4.10089C14.8897 3.16892 13.2862 2.69011 11.4643 2.71149Z" fill="white"/>
<path d="M6.24744 8.81632C6.26491 7.85442 6.6494 7.06353 7.4009 6.44792C7.615 6.27264 7.87278 6.19996 8.15678 6.24699C8.27911 6.26409 8.40582 6.28119 8.52379 6.26837C8.82089 6.24699 8.99129 6.40944 9.08305 6.64885C9.36267 7.36706 9.63356 8.08955 9.90882 8.80777C9.96125 8.94457 9.94815 9.06855 9.88261 9.1968C9.71221 9.54308 9.44132 9.81242 9.17043 10.0817C8.93449 10.3169 8.92139 10.3938 9.08305 10.6803C9.86513 12.0654 10.9443 13.1427 12.4386 13.7968C12.5129 13.8267 12.5784 13.878 12.6483 13.908C12.8362 13.9977 13.0066 13.9892 13.1639 13.831C13.4697 13.5275 13.7537 13.2026 14.029 12.8691C14.2431 12.6083 14.3436 12.5698 14.645 12.7024C15.3791 13.0358 16.0781 13.4249 16.7903 13.8011C17.0262 13.9251 17.0525 14.0961 17.0175 14.4081C16.8733 15.6778 15.8815 16.255 14.7499 16.4388C14.3698 16.4987 14.0115 16.4645 13.6532 16.3533C12.6046 16.0284 11.5735 15.6522 10.6472 15.0622C9.78212 14.5107 9.03935 13.8225 8.38834 13.0401C7.75481 12.2749 7.19118 11.4669 6.72368 10.5905C6.46153 10.0903 6.24744 9.31223 6.24744 8.81632Z" fill="white"/>
</svg>
